<svg width="186" height="35" viewBox="0 0 186 35" fill="none" xmlns="http://www.w3.org/2000/svg">
<g filter="url(#filter0_dd_48_10)">
<path d="M11.5711 26.648C10.2511 26.648 8.90706 26.48 7.53906 26.144C6.17106 25.832 5.03106 25.412 4.11906 24.884L4.29906 19.988H4.65906L5.77506 22.328C6.11106 23 6.47106 23.6 6.85506 24.128C7.23906 24.632 7.76706 25.028 8.43906 25.316C8.91906 25.556 9.37506 25.724 9.80706 25.82C10.2631 25.892 10.7671 25.928 11.3191 25.928C12.7831 25.928 13.9351 25.532 14.7751 24.74C15.6391 23.948 16.0711 22.928 16.0711 21.68C16.0711 20.504 15.7831 19.592 15.2071 18.944C14.6311 18.272 13.7071 17.624 12.4351 17L10.9591 16.352C8.89506 15.44 7.27506 14.396 6.09906 13.22C4.94706 12.02 4.37106 10.436 4.37106 8.468C4.37106 7.052 4.73106 5.828 5.45106 4.796C6.19506 3.764 7.21506 2.972 8.51106 2.42C9.83106 1.868 11.3671 1.592 13.1191 1.592C14.3911 1.592 15.5911 1.76 16.7191 2.096C17.8711 2.432 18.8671 2.888 19.7071 3.464L19.4911 7.784H19.1311L17.6551 5.084C17.2471 4.244 16.8391 3.656 16.4311 3.32C16.0231 2.96 15.5551 2.708 15.0271 2.564C14.7151 2.468 14.4271 2.408 14.1631 2.384C13.8991 2.336 13.5631 2.312 13.1551 2.312C11.9311 2.312 10.8991 2.672 10.0591 3.392C9.21906 4.088 8.79906 5.036 8.79906 6.236C8.79906 7.46 9.12306 8.444 9.77106 9.188C10.4191 9.908 11.3671 10.556 12.6151 11.132L14.2711 11.852C16.5751 12.86 18.2311 13.94 19.2391 15.092C20.2471 16.22 20.7511 17.684 20.7511 19.484C20.7511 21.596 19.9471 23.324 18.3391 24.668C16.7551 25.988 14.4991 26.648 11.5711 26.648ZM22.4639 26V25.64L23.0039 25.46C23.8199 25.196 24.2279 24.608 24.2279 23.696V4.436C24.2279 3.956 24.1319 3.596 23.9399 3.356C23.7479 3.116 23.4119 2.924 22.9319 2.78L22.4639 2.672V2.312L29.0519 0.763999L29.4839 1.088L29.3759 6.128V23.696C29.3759 24.656 29.7719 25.256 30.5639 25.496L31.0679 25.64V26H22.4639ZM35.8199 26L29.4119 17L36.0719 10.844C36.3839 10.556 36.5639 10.256 36.6119 9.944C36.6839 9.608 36.4799 9.368 35.9999 9.224L35.3879 9.044V8.684H40.7519V9.044L39.6719 9.332C39.1439 9.5 38.7119 9.704 38.3759 9.944C38.0639 10.16 37.6799 10.472 37.2239 10.88L33.1919 14.66L39.6359 23.624C40.0199 24.152 40.3799 24.56 40.7159 24.848C41.0519 25.136 41.4839 25.376 42.0119 25.568L42.1559 25.64V26H35.8199ZM51.6779 8.144C53.2379 8.144 54.5699 8.468 55.6739 9.116C56.7779 9.74 57.6179 10.604 58.1939 11.708C58.7939 12.788 59.0939 14.024 59.0939 15.416C59.0939 15.68 59.0819 15.956 59.0579 16.244C59.0339 16.508 58.9859 16.748 58.9139 16.964H48.1859C48.2099 19.556 48.6659 21.428 49.5539 22.58C50.4659 23.708 51.8099 24.272 53.5859 24.272C54.7859 24.272 55.7579 24.08 56.5019 23.696C57.2459 23.312 57.9419 22.748 58.5899 22.004L58.9499 22.328C58.2059 23.648 57.2099 24.68 55.9619 25.424C54.7379 26.168 53.2619 26.54 51.5339 26.54C49.8299 26.54 48.3179 26.18 46.9979 25.46C45.6779 24.716 44.6459 23.66 43.9019 22.292C43.1579 20.924 42.7859 19.292 42.7859 17.396C42.7859 15.428 43.2179 13.76 44.0819 12.392C44.9459 11 46.0499 9.944 47.3939 9.224C48.7619 8.504 50.1899 8.144 51.6779 8.144ZM51.5699 8.864C50.8739 8.864 50.2739 9.08 49.7699 9.512C49.2899 9.92 48.9059 10.664 48.6179 11.744C48.3539 12.8 48.2099 14.3 48.1859 16.244H54.3419C54.5819 13.628 54.4859 11.744 54.0539 10.592C53.6219 9.44 52.7939 8.864 51.5699 8.864ZM67.728 26.54C66.192 26.54 64.992 26.156 64.128 25.388C63.288 24.62 62.868 23.396 62.868 21.716V9.404H60.384V9.044L61.248 8.9C61.992 8.732 62.628 8.492 63.156 8.18C63.708 7.868 64.248 7.448 64.776 6.92L67.728 3.644H68.088L67.98 8.684H72.012V9.404H67.944V22.364C67.944 23.204 68.124 23.84 68.484 24.272C68.868 24.704 69.348 24.92 69.924 24.92C70.428 24.92 70.872 24.8 71.256 24.56C71.64 24.296 72.024 23.948 72.408 23.516L72.768 23.876C72.288 24.692 71.628 25.34 70.788 25.82C69.948 26.3 68.928 26.54 67.728 26.54ZM82.7183 26.54C81.0863 26.54 79.5983 26.192 78.2543 25.496C76.9343 24.776 75.8783 23.744 75.0863 22.4C74.3183 21.032 73.9343 19.364 73.9343 17.396C73.9343 15.452 74.3543 13.796 75.1943 12.428C76.0583 11.036 77.1983 9.98 78.6143 9.26C80.0543 8.516 81.6263 8.144 83.3303 8.144C84.7223 8.144 85.8983 8.372 86.8583 8.828C87.8183 9.284 88.5503 9.884 89.0543 10.628C89.5583 11.348 89.8103 12.104 89.8103 12.896C89.8103 13.568 89.6063 14.096 89.1983 14.48C88.7903 14.84 88.2623 15.02 87.6143 15.02C86.9183 15.02 86.3543 14.768 85.9223 14.264C85.4903 13.76 85.2383 13.1 85.1663 12.284C85.1423 11.756 85.1543 11.312 85.2023 10.952C85.2503 10.568 85.2503 10.184 85.2023 9.8C85.1063 9.392 84.9503 9.128 84.7343 9.008C84.5423 8.864 84.2663 8.792 83.9063 8.792C82.4423 8.792 81.3023 9.428 80.4863 10.7C79.6943 11.972 79.2983 14 79.2983 16.784C79.2983 19.208 79.7423 21.068 80.6303 22.364C81.5423 23.636 82.9343 24.272 84.8063 24.272C85.9343 24.272 86.8463 24.068 87.5423 23.66C88.2383 23.252 88.9103 22.64 89.5583 21.824L89.9183 22.112C89.3183 23.528 88.3943 24.62 87.1463 25.388C85.8983 26.156 84.4223 26.54 82.7183 26.54ZM90.9139 26V25.64L91.3459 25.496C92.2099 25.208 92.6419 24.608 92.6419 23.696V4.472C92.6419 3.968 92.5579 3.596 92.3899 3.356C92.2219 3.116 91.8979 2.936 91.4179 2.816L90.8779 2.672V2.312L97.2139 0.763999L97.7899 1.088L97.6459 6.164V10.664C98.4859 9.968 99.3859 9.38 100.346 8.9C101.33 8.396 102.41 8.144 103.586 8.144C105.146 8.144 106.382 8.588 107.294 9.476C108.23 10.364 108.698 11.732 108.698 13.58V23.732C108.698 24.212 108.794 24.596 108.986 24.884C109.178 25.172 109.514 25.388 109.994 25.532L110.282 25.64V26H101.858V25.64L102.29 25.532C103.154 25.244 103.586 24.632 103.586 23.696V12.392C103.586 11.432 103.418 10.772 103.082 10.412C102.77 10.052 102.206 9.872 101.39 9.872C100.862 9.872 100.286 9.98 99.6619 10.196C99.0379 10.388 98.4019 10.736 97.7539 11.24V23.768C97.7539 24.704 98.1859 25.304 99.0499 25.568L99.3379 25.64V26H90.9139ZM112.409 17.36V16.388H121.481V17.36H112.409ZM130.482 26.54C128.946 26.54 127.746 26.156 126.882 25.388C126.042 24.62 125.622 23.396 125.622 21.716V9.404H123.138V9.044L124.002 8.9C124.746 8.732 125.382 8.492 125.91 8.18C126.462 7.868 127.002 7.448 127.53 6.92L130.482 3.644H130.842L130.734 8.684H134.766V9.404H130.698V22.364C130.698 23.204 130.878 23.84 131.238 24.272C131.622 24.704 132.102 24.92 132.678 24.92C133.182 24.92 133.626 24.8 134.01 24.56C134.394 24.296 134.778 23.948 135.162 23.516L135.522 23.876C135.042 24.692 134.382 25.34 133.542 25.82C132.702 26.3 131.682 26.54 130.482 26.54ZM136.758 26V25.64L137.19 25.496C138.054 25.208 138.486 24.608 138.486 23.696V4.472C138.486 3.968 138.402 3.596 138.234 3.356C138.066 3.116 137.742 2.936 137.262 2.816L136.722 2.672V2.312L143.058 0.763999L143.634 1.088L143.49 6.164V10.664C144.33 9.968 145.23 9.38 146.19 8.9C147.174 8.396 148.254 8.144 149.43 8.144C150.99 8.144 152.226 8.588 153.138 9.476C154.074 10.364 154.542 11.732 154.542 13.58V23.732C154.542 24.212 154.638 24.596 154.83 24.884C155.022 25.172 155.358 25.388 155.838 25.532L156.126 25.64V26H147.702V25.64L148.134 25.532C148.998 25.244 149.43 24.632 149.43 23.696V12.392C149.43 11.432 149.262 10.772 148.926 10.412C148.614 10.052 148.05 9.872 147.234 9.872C146.706 9.872 146.13 9.98 145.506 10.196C144.882 10.388 144.246 10.736 143.598 11.24V23.768C143.598 24.704 144.03 25.304 144.894 25.568L145.182 25.64V26H136.758ZM161.853 6.272C161.037 6.272 160.341 6.02 159.765 5.516C159.213 4.988 158.937 4.328 158.937 3.536C158.937 2.72 159.213 2.06 159.765 1.556C160.341 1.052 161.037 0.799998 161.853 0.799998C162.669 0.799998 163.353 1.052 163.905 1.556C164.457 2.06 164.733 2.72 164.733 3.536C164.733 4.328 164.457 4.988 163.905 5.516C163.353 6.02 162.669 6.272 161.853 6.272ZM157.605 26V25.64L158.109 25.496C158.589 25.352 158.913 25.136 159.081 24.848C159.273 24.56 159.369 24.176 159.369 23.696V12.428C159.369 11.924 159.273 11.552 159.081 11.312C158.913 11.048 158.589 10.868 158.109 10.772L157.605 10.664V10.304L164.193 8.18L164.553 8.54L164.445 13.652V23.732C164.445 24.212 164.529 24.596 164.697 24.884C164.889 25.172 165.213 25.388 165.669 25.532L166.029 25.64V26H157.605ZM173.85 26.54C172.674 26.54 171.618 26.396 170.682 26.108C169.746 25.844 168.882 25.508 168.09 25.1L168.126 20.816H168.486L169.71 22.976C170.238 23.936 170.814 24.656 171.438 25.136C172.086 25.592 172.902 25.82 173.886 25.82C175.038 25.82 175.962 25.568 176.658 25.064C177.378 24.536 177.738 23.84 177.738 22.976C177.738 22.184 177.486 21.536 176.982 21.032C176.478 20.528 175.542 20.072 174.174 19.664L172.662 19.196C171.198 18.764 170.046 18.092 169.206 17.18C168.366 16.268 167.946 15.152 167.946 13.832C167.946 12.248 168.57 10.904 169.818 9.8C171.066 8.696 172.854 8.144 175.182 8.144C176.118 8.144 176.994 8.252 177.81 8.468C178.65 8.66 179.454 8.96 180.222 9.368L180.006 13.256H179.646L178.386 11.024C177.93 10.232 177.474 9.68 177.018 9.368C176.586 9.032 175.926 8.864 175.038 8.864C174.222 8.864 173.454 9.092 172.734 9.548C172.014 10.004 171.654 10.652 171.654 11.492C171.654 12.308 171.954 12.956 172.554 13.436C173.178 13.916 174.09 14.36 175.29 14.768L176.91 15.236C178.638 15.764 179.874 16.496 180.618 17.432C181.362 18.344 181.734 19.448 181.734 20.744C181.734 22.496 181.038 23.9 179.646 24.956C178.278 26.012 176.346 26.54 173.85 26.54Z" fill="#051312"/>
</g>
<defs>
<filter id="filter0_dd_48_10" x="0.119141" y="0.763916" width="185.615" height="33.884" filterUnits="userSpaceOnUse" color-interpolation-filters="sRGB">
<feFlood flood-opacity="0" result="BackgroundImageFix"/>
<feColorMatrix in="SourceAlpha" type="matrix" values="0 0 0 0 0 0 0 0 0 0 0 0 0 0 0 0 0 0 127 0" result="hardAlpha"/>
<feOffset dy="4"/>
<feGaussianBlur stdDeviation="2"/>
<feComposite in2="hardAlpha" operator="out"/>
<feColorMatrix type="matrix" values="0 0 0 0 0 0 0 0 0 0 0 0 0 0 0 0 0 0 0.25 0"/>
<feBlend mode="normal" in2="BackgroundImageFix" result="effect1_dropShadow_48_10"/>
<feColorMatrix in="SourceAlpha" type="matrix" values="0 0 0 0 0 0 0 0 0 0 0 0 0 0 0 0 0 0 127 0" result="hardAlpha"/>
<feOffset dy="4"/>
<feGaussianBlur stdDeviation="2"/>
<feComposite in2="hardAlpha" operator="out"/>
<feColorMatrix type="matrix" values="0 0 0 0 0 0 0 0 0 0 0 0 0 0 0 0 0 0 0.25 0"/>
<feBlend mode="normal" in2="effect1_dropShadow_48_10" result="effect2_dropShadow_48_10"/>
<feBlend mode="normal" in="SourceGraphic" in2="effect2_dropShadow_48_10" result="shape"/>
</filter>
</defs>
</svg>
